# xmcd
#
# Track frame offsets:
#	150
#	19346
#	39116
#	62058
#	82147
#	102088
#	121324
#	138586
#	155551
#	171101
#	187649
#	206874
#	226401
#	244545
#	263301
#	284735
#	305340
#	331416
#
# Disc length: 4763 seconds
#
# Revision: 0
# Processed by: cddbd v1.5.2PL0 Copyright (c) Steve Scherf et al.
# Submitted via: EasyCDDAExtractor 11.6.0.1
#
DISCID=f4129912
DTITLE=ALIZEE - MOI LOLITA
DYEAR=1900
DGENRE=
TTITLE0=L`ALIZE
TTITLE1=MOI LOLITA
TTITLE2=J`EN AI MARRE
TTITLE3=A CONTRE COURANT
TTITLE4=TOC DE MAC
TTITLE5=J`AI PAS VINGT ANS
TTITLE6=HEY AMIGO!
TTITLE7=AMELIE M`A DIT
TTITLE8=L`E-MAIL A DES AILES
TTITLE9=JBG
TTITLE10=LUI OU TOI
TTITLE11=VENI VEDI VICI
TTITLE12=YOUPIDOU
TTITLE13=GOURMANDISES
TTITLE14=MOI LOLITA (LOLA REMIX)
TTITLE15=A CONTRE COURANT (STEVE HELPSTRIP CLUB MIX)
TTITLE16=J`AI PAS VINGHT ANS (BENNY BENASSI REMIX)
TTITLE17=J`EN AI MARRE (LIVE)
EXTD=
EXTT0=
EXTT1=
EXTT2=
EXTT3=
EXTT4=
EXTT5=
EXTT6=
EXTT7=
EXTT8=
EXTT9=
EXTT10=
EXTT11=
EXTT12=
EXTT13=
EXTT14=
EXTT15=
EXTT16=
EXTT17=
PLAYORDER=
